0
SECTION
2
HEADER
9
$INSUNITS
70
4
9
$ACADVER
1
AC1014
9
$HANDSEED
5
FFFF
0
ENDSEC
0
SECTION
2
TABLES
0
TABLE
2
VPORT
5
8
100
AcDbSymbolTable
0
ENDTAB
0
TABLE
2
LTYPE
5
5
100
AcDbSymbolTable
0
LTYPE
5
14
100
AcDbSymbolTableRecord
100
AcDbLinetypeTableRecord
2
BYBLOCK
70
0
0
LTYPE
5
15
100
AcDbSymbolTableRecord
100
AcDbLinetypeTableRecord
2
BYLAYER
70
0
0
LTYPE
5
16
100
AcDbSymbolTableRecord
100
AcDbLinetypeTableRecord
2
DASHED
70
0
3
Dashed __ __ __ __ __ __ __ __ __ __ __ __ __ _
72
65
73
2
40
0.75
49
0.5
74
0
49
-0.25
74
0
0
ENDTAB
0
TABLE
2
LAYER
5
2
100
AcDbSymbolTable
70
2
0
LAYER
5
50
100
AcDbSymbolTableRecord
100
AcDbLayerTableRecord
2
0
70
0
62
7
6
CONTINUOUS
0
ENDTAB
0
TABLE
2
STYLE
5
3
100
AcDbSymbolTable
70
1
0
STYLE
5
11
100
AcDbSymbolTableRecord
100
AcDbTextStyleTableRecord
2
STANDARD
70
0
0
ENDTAB
0
TABLE
2
VIEW
5
6
100
AcDbSymbolTable
70
0
0
ENDTAB
0
TABLE
2
UCS
5
7
100
AcDbSymbolTable
70
0
0
ENDTAB
0
TABLE
2
APPID
5
9
100
AcDbSymbolTable
70
2
0
APPID
5
12
100
AcDbSymbolTableRecord
100
AcDbRegAppTableRecord
2
ACAD
70
0
0
ENDTAB
0
TABLE
2
DIMSTYLE
5
A
100
AcDbSymbolTable
70
1
0
ENDTAB
0
TABLE
2
BLOCK_RECORD
5
1
100
AcDbSymbolTable
70
1
0
BLOCK_RECORD
5
1F
100
AcDbSymbolTableRecord
100
AcDbBlockTableRecord
2
*MODEL_SPACE
0
BLOCK_RECORD
5
1B
100
AcDbSymbolTableRecord
100
AcDbBlockTableRecord
2
*PAPER_SPACE
0
ENDTAB
0
ENDSEC
0
SECTION
2
BLOCKS
0
BLOCK
5
20
100
AcDbEntity
100
AcDbBlockBegin
2
*MODEL_SPACE
0
ENDBLK
5
21
100
AcDbEntity
100
AcDbBlockEnd
0
BLOCK
5
1C
100
AcDbEntity
100
AcDbBlockBegin
2
*PAPER_SPACE
0
ENDBLK
5
1D
100
AcDbEntity
100
AcDbBlockEnd
0
ENDSEC
0
SECTION
2
ENTITIES
0
POINT
5
100
100
AcDbEntity
8
0
100
AcDbPoint
10
161.41816316880042
20
60.240810749627379
30
0
0
POINT
5
101
100
AcDbEntity
8
0
100
AcDbPoint
10
160.452350727565
20
47.493607359719412
30
0
0
LINE
5
102
100
AcDbEntity
8
0
100
AcDbLine
10
-152.99664927243509
20
-56.681000000000026
30
0
11
157.00335072756485
21
-56.681000000000026
31
0
0
ARC
5
103
100
AcDbEntity
8
0
100
AcDbCircle
10
166.59775000000022
20
-63.680999999999983
30
0
40
3.0000000000000426
210
-0
220
-0
230
-1
100
AcDbArc
50
270
51
360
0
LINE
5
104
100
AcDbEntity
8
0
100
AcDbLine
10
156.9656388825851
20
61.224999999999987
30
0
11
156.9226763958074
21
73.318999999999974
31
0
0
LINE
5
105
100
AcDbEntity
8
0
100
AcDbLine
10
156.9226763958074
20
73.318999999999974
30
0
11
-152.99664927243506
21
73.318999999999974
31
0
0
ARC
5
106
100
AcDbEntity
8
0
100
AcDbCircle
10
-171.3622500000001
20
-63.680999999999983
30
0
40
3.0000000000000071
210
0
220
-0
230
-1
100
AcDbArc
50
180
51
270
0
LINE
5
107
100
AcDbEntity
8
0
100
AcDbLine
10
-166.59774999999993
20
83.319000000000017
30
0
11
171.36224999999999
21
83.318999999999974
31
0
0
LINE
5
108
100
AcDbEntity
8
0
100
AcDbLine
10
-152.99664927243506
20
73.318999999999974
30
0
11
-152.99664927243509
21
-56.681000000000026
31
0
0
ARC
5
109
100
AcDbEntity
8
0
100
AcDbCircle
10
-171.36224999999999
20
80.318999999999903
30
0
40
3.0000000000000782
210
0
220
0
230
-1
100
AcDbArc
50
90
51
180
0
LINE
5
110
100
AcDbEntity
8
0
100
AcDbLine
10
171.3622500000001
20
-66.680999999999983
30
0
11
-166.59775000000022
21
-66.681000000000026
31
0
0
ARC
5
111
100
AcDbEntity
8
0
100
AcDbCircle
10
166.59774999999993
20
80.318999999999903
30
0
40
3.0000000000001137
210
0
220
0
230
-1
100
AcDbArc
50
0
51
90
0
LINE
5
112
100
AcDbEntity
8
0
100
AcDbLine
10
157.00335072756485
20
-56.681000000000026
30
0
11
157.00335072756496
21
46.493607359719427
31
0
0
CIRCLE
5
113
100
AcDbEntity
8
0
100
AcDbCircle
10
-157.23775000000003
20
78.319000000000017
30
0
40
1.4999999999999944
210
0
220
0
230
1
0
CIRCLE
5
114
100
AcDbEntity
8
0
100
AcDbCircle
10
-51.237749999999984
20
78.319000000000017
30
0
40
1.4999999999999944
210
0
220
0
230
1
0
CIRCLE
5
115
100
AcDbEntity
8
0
100
AcDbCircle
10
54.76225000000003
20
78.319000000000017
30
0
40
1.4999999999999944
210
0
220
0
230
1
0
CIRCLE
5
116
100
AcDbEntity
8
0
100
AcDbCircle
10
162.76225000000008
20
78.319000000000017
30
0
40
1.4999999999999944
210
0
220
0
230
1
0
CIRCLE
5
117
100
AcDbEntity
8
0
100
AcDbCircle
10
-157.23775000000003
20
-61.681000000000026
30
0
40
1.4999999999999944
210
0
220
0
230
1
0
CIRCLE
5
118
100
AcDbEntity
8
0
100
AcDbCircle
10
-51.237749999999984
20
-61.681000000000026
30
0
40
1.4999999999999944
210
0
220
0
230
1
0
CIRCLE
5
119
100
AcDbEntity
8
0
100
AcDbCircle
10
54.76225000000003
20
-61.681000000000026
30
0
40
1.4999999999999944
210
0
220
0
230
1
0
CIRCLE
5
120
100
AcDbEntity
8
0
100
AcDbCircle
10
162.76225000000008
20
-61.681000000000026
30
0
40
1.4999999999999944
210
0
220
0
230
1
0
LINE
5
121
100
AcDbEntity
8
0
100
AcDbLine
10
174.36225000000007
20
80.318999999999946
30
0
11
174.36225000000033
21
68.098289459126192
31
0
0
LINE
5
122
100
AcDbEntity
8
0
100
AcDbLine
10
174.36225000000081
20
39.03605652891131
30
0
11
174.3622500000001
21
-63.681000000000019
31
0
0
LINE
5
123
100
AcDbEntity
8
0
100
AcDbLine
10
157.96918493078334
20
60.228558667471503
30
0
11
160.63071809850891
21
60.238013445328058
31
0
0
ARC
5
124
100
AcDbEntity
8
0
100
AcDbCircle
10
157.96563257282625
20
61.228552357825961
30
0
40
0.99999999988413379
210
0
220
0
230
1
100
AcDbArc
50
180.20353553885064
51
270.2035355463405
0
LINE
5
125
100
AcDbEntity
8
0
100
AcDbLine
10
162.16663172096253
20
60.485499102268541
30
0
11
170.91592541164169
21
63.345806664284943
31
0
0
ARC
5
126
100
AcDbEntity
8
0
100
AcDbCircle
10
160.61295630932196
20
65.237981897101506
30
0
40
4.9999999999884945
210
0
220
0
230
1
100
AcDbArc
50
270.20353553948217
51
288.10353553952405
0
ARC
5
127
100
AcDbEntity
8
0
100
AcDbCircle
10
169.36225000000036
20
68.098289459126065
30
0
40
4.9999999999999689
210
-0
220
0
230
1
100
AcDbArc
50
-71.896464460496645
51
0
0
LINE
5
128
100
AcDbEntity
8
0
100
AcDbLine
10
158.00335072756494
20
47.493607359719441
30
0
11
159.59359432113871
21
47.493607359719448
31
0
0
ARC
5
129
100
AcDbEntity
8
0
100
AcDbCircle
10
158.00335072756494
20
46.493607359719427
30
0
40
1.0000000000000142
210
0
220
-0
230
1
100
AcDbArc
50
90
51
180
0
LINE
5
130
100
AcDbEntity
8
0
100
AcDbLine
10
161.26189476885742
20
47.207074620255192
30
0
11
171.03055044771929
21
43.74952378944711
31
0
0
ARC
5
131
100
AcDbEntity
8
0
100
AcDbCircle
10
169.36225000000081
20
39.036056528911359
30
0
40
5
210
-0
220
0
230
1
100
AcDbArc
50
0
51
70.508920731899778
0
ARC
5
132
100
AcDbEntity
8
0
100
AcDbCircle
10
159.59359432113871
20
42.493607359718652
30
0
40
5.0000000000008278
210
0
220
-0
230
1
100
AcDbArc
50
70.508920731900346
51
90
0
LINE
5
133
100
AcDbEntity
8
0
100
AcDbLine
10
-169.59775000000005
20
80.318999999999946
30
0
11
-169.59775000000025
21
-63.681000000000019
31
0
0
ENDSEC
0
SECTION
2
OBJECTS
0
DICTIONARY
5
C
100
AcDbDictionary
3
ACAD_GROUP
350
D
3
ACAD_MLINESTYLE
350
17
0
DICTIONARY
5
D
100
AcDbDictionary
0
DICTIONARY
5
1A
330
C
100
AcDbDictionary
0
DICTIONARY
5
17
100
AcDbDictionary
0
ENDSEC
0
EOF
