0
SECTION
2
HEADER
9
$INSUNITS
70
4
9
$ACADVER
1
AC1014
9
$HANDSEED
5
FFFF
0
ENDSEC
0
SECTION
2
TABLES
0
TABLE
2
VPORT
5
8
100
AcDbSymbolTable
0
ENDTAB
0
TABLE
2
LTYPE
5
5
100
AcDbSymbolTable
0
LTYPE
5
14
100
AcDbSymbolTableRecord
100
AcDbLinetypeTableRecord
2
BYBLOCK
70
0
0
LTYPE
5
15
100
AcDbSymbolTableRecord
100
AcDbLinetypeTableRecord
2
BYLAYER
70
0
0
LTYPE
5
16
100
AcDbSymbolTableRecord
100
AcDbLinetypeTableRecord
2
DASHED
70
0
3
Dashed __ __ __ __ __ __ __ __ __ __ __ __ __ _
72
65
73
2
40
0.75
49
0.5
74
0
49
-0.25
74
0
0
ENDTAB
0
TABLE
2
LAYER
5
2
100
AcDbSymbolTable
70
2
0
LAYER
5
50
100
AcDbSymbolTableRecord
100
AcDbLayerTableRecord
2
0
70
0
62
7
6
CONTINUOUS
0
ENDTAB
0
TABLE
2
STYLE
5
3
100
AcDbSymbolTable
70
1
0
STYLE
5
11
100
AcDbSymbolTableRecord
100
AcDbTextStyleTableRecord
2
STANDARD
70
0
0
ENDTAB
0
TABLE
2
VIEW
5
6
100
AcDbSymbolTable
70
0
0
ENDTAB
0
TABLE
2
UCS
5
7
100
AcDbSymbolTable
70
0
0
ENDTAB
0
TABLE
2
APPID
5
9
100
AcDbSymbolTable
70
2
0
APPID
5
12
100
AcDbSymbolTableRecord
100
AcDbRegAppTableRecord
2
ACAD
70
0
0
ENDTAB
0
TABLE
2
DIMSTYLE
5
A
100
AcDbSymbolTable
70
1
0
ENDTAB
0
TABLE
2
BLOCK_RECORD
5
1
100
AcDbSymbolTable
70
1
0
BLOCK_RECORD
5
1F
100
AcDbSymbolTableRecord
100
AcDbBlockTableRecord
2
*MODEL_SPACE
0
BLOCK_RECORD
5
1B
100
AcDbSymbolTableRecord
100
AcDbBlockTableRecord
2
*PAPER_SPACE
0
ENDTAB
0
ENDSEC
0
SECTION
2
BLOCKS
0
BLOCK
5
20
100
AcDbEntity
100
AcDbBlockBegin
2
*MODEL_SPACE
0
ENDBLK
5
21
100
AcDbEntity
100
AcDbBlockEnd
0
BLOCK
5
1C
100
AcDbEntity
100
AcDbBlockBegin
2
*PAPER_SPACE
0
ENDBLK
5
1D
100
AcDbEntity
100
AcDbBlockEnd
0
ENDSEC
0
SECTION
2
ENTITIES
0
LWPOLYLINE
5
100
100
AcDbEntity
8
0
100
AcDbPolyline
90
8
70
1
43
0.0
10
-116.97499999999999
20
57.474999999999994
10
-103.97499999999999
20
57.475000000000009
42
-0.4142135623730846
10
-103.47499999999999
20
56.974999999999994
10
-103.47499999999999
20
43.975000000000001
42
-0.4142135623730846
10
-103.97499999999999
20
43.475000000000001
10
-116.97499999999999
20
43.474999999999994
42
-0.41421356237309503
10
-117.47500000000001
20
43.975000000000001
10
-117.47499999999999
20
56.974999999999994
42
-0.41421356237309503
0
LWPOLYLINE
5
101
100
AcDbEntity
8
0
100
AcDbPolyline
90
8
70
1
43
0.0
10
-97.925000000000011
20
57.474999999999994
10
-84.924999999999997
20
57.475000000000009
42
-0.41421356237309503
10
-84.424999999999983
20
56.974999999999994
10
-84.424999999999983
20
43.975000000000001
42
-0.41421356237309503
10
-84.924999999999997
20
43.475000000000001
10
-97.925000000000011
20
43.475000000000009
42
-0.41421356237309503
10
-98.424999999999997
20
43.975000000000001
10
-98.425000000000011
20
56.974999999999994
42
-0.41421356237309503
0
LWPOLYLINE
5
102
100
AcDbEntity
8
0
100
AcDbPolyline
90
8
70
1
43
0.0
10
-78.875
20
57.474999999999994
10
-65.875
20
57.474999999999994
42
-0.41421356237309503
10
-65.375
20
56.974999999999994
10
-65.375
20
43.975000000000001
42
-0.41421356237309503
10
-65.875
20
43.475000000000001
10
-78.875
20
43.475000000000001
42
-0.41421356237309503
10
-79.375
20
43.975000000000001
10
-79.375
20
56.974999999999994
42
-0.41421356237309503
0
LWPOLYLINE
5
103
100
AcDbEntity
8
0
100
AcDbPolyline
90
8
70
1
43
0.0
10
-59.825000000000003
20
57.474999999999994
10
-46.825000000000003
20
57.474999999999994
42
-0.41421356237309503
10
-46.325000000000003
20
56.974999999999994
10
-46.325000000000003
20
43.975000000000001
42
-0.41421356237309503
10
-46.825000000000003
20
43.475000000000001
10
-59.825000000000003
20
43.475000000000001
42
-0.41421356237309503
10
-60.324999999999996
20
43.975000000000001
10
-60.324999999999996
20
56.974999999999994
42
-0.41421356237309503
0
LWPOLYLINE
5
104
100
AcDbEntity
8
0
100
AcDbPolyline
90
8
70
1
43
0.0
10
-40.775000000000006
20
57.474999999999994
10
-27.774999999999999
20
57.474999999999987
42
-0.41421356237309503
10
-27.275000000000009
20
56.974999999999994
10
-27.274999999999999
20
43.975000000000001
42
-0.41421356237309503
10
-27.774999999999999
20
43.475000000000001
10
-40.775000000000006
20
43.475000000000001
42
-0.41421356237309503
10
-41.275000000000006
20
43.975000000000001
10
-41.275000000000006
20
56.974999999999994
42
-0.41421356237309503
0
LWPOLYLINE
5
105
100
AcDbEntity
8
0
100
AcDbPolyline
90
8
70
1
43
0.0
10
-21.724999999999994
20
57.474999999999994
10
-8.7249999999999872
20
57.475000000000009
42
-0.41421356237309503
10
-8.2249999999999801
20
56.974999999999994
10
-8.224999999999989
20
43.975000000000001
42
-0.41421356237309503
10
-8.7249999999999872
20
43.475000000000001
10
-21.724999999999994
20
43.475000000000009
42
-0.41421356237309503
10
-22.224999999999984
20
43.975000000000001
10
-22.224999999999994
20
56.974999999999994
42
-0.41421356237309503
0
LWPOLYLINE
5
106
100
AcDbEntity
8
0
100
AcDbPolyline
90
8
70
1
43
0.0
10
-2.6749999999999829
20
57.474999999999994
10
10.324999999999989
20
57.475000000000009
42
-0.41421356237309503
10
10.824999999999996
20
56.974999999999994
10
10.824999999999987
20
43.975000000000001
42
-0.41421356237309503
10
10.324999999999989
20
43.475000000000001
10
-2.6749999999999829
20
43.474999999999994
42
-0.41421356237309503
10
-3.1749999999999901
20
43.975000000000001
10
-3.1749999999999812
20
56.974999999999994
42
-0.41421356237309503
0
LWPOLYLINE
5
107
100
AcDbEntity
8
0
100
AcDbPolyline
90
8
70
1
43
0.0
10
16.375000000000011
20
57.474999999999994
10
29.375
20
57.475000000000009
42
-0.41421356237309503
10
29.875000000000007
20
56.974999999999994
10
29.875
20
43.975000000000001
42
-0.41421356237309503
10
29.375
20
43.475000000000001
10
16.375000000000011
20
43.474999999999994
42
-0.41421356237309503
10
15.875000000000004
20
43.975000000000001
10
15.875000000000012
20
56.974999999999994
42
-0.41421356237309503
0
LWPOLYLINE
5
108
100
AcDbEntity
8
0
100
AcDbPolyline
90
8
70
1
43
0.0
10
35.425000000000026
20
57.474999999999994
10
48.425000000000011
20
57.475000000000009
42
-0.41421356237309503
10
48.925000000000018
20
56.974999999999994
10
48.925000000000011
20
43.975000000000001
42
-0.41421356237309503
10
48.425000000000011
20
43.475000000000001
10
35.425000000000026
20
43.474999999999994
42
-0.41421356237309503
10
34.925000000000011
20
43.975000000000001
10
34.925000000000026
20
56.974999999999994
42
-0.41421356237309503
0
LWPOLYLINE
5
109
100
AcDbEntity
8
0
100
AcDbPolyline
90
8
70
1
43
0.0
10
54.475000000000016
20
57.474999999999994
10
67.474999999999994
20
57.475000000000009
42
-0.41421356237309503
10
67.974999999999994
20
56.974999999999994
10
67.97499999999998
20
43.975000000000001
42
-0.41421356237309503
10
67.474999999999994
20
43.475000000000001
10
54.475000000000016
20
43.474999999999994
42
-0.41421356237309503
10
53.975000000000009
20
43.975000000000001
10
53.975000000000016
20
56.974999999999994
42
-0.41421356237309503
0
LWPOLYLINE
5
110
100
AcDbEntity
8
0
100
AcDbPolyline
90
8
70
1
43
0.0
10
73.525000000000034
20
57.474999999999994
10
86.525000000000034
20
57.474999999999966
42
-0.41421356237309503
10
87.025000000000006
20
56.974999999999994
10
87.025000000000034
20
43.975000000000001
42
-0.41421356237309503
10
86.525000000000034
20
43.475000000000001
10
73.525000000000034
20
43.474999999999994
42
-0.41421356237309503
10
73.02500000000002
20
43.975000000000001
10
73.025000000000034
20
56.974999999999994
42
-0.41421356237309503
0
LWPOLYLINE
5
111
100
AcDbEntity
8
0
100
AcDbPolyline
90
8
70
1
43
0.0
10
92.575000000000003
20
57.474999999999994
10
105.57500000000002
20
57.475000000000009
42
-0.41421356237309503
10
106.07500000000002
20
56.974999999999994
10
106.07500000000002
20
43.975000000000001
42
-0.41421356237309503
10
105.57500000000002
20
43.475000000000001
10
92.575000000000003
20
43.474999999999994
42
-0.41421356237309503
10
92.074999999999989
20
43.975000000000001
10
92.074999999999989
20
56.974999999999994
42
-0.41421356237309503
0
LWPOLYLINE
5
112
100
AcDbEntity
8
0
100
AcDbPolyline
90
8
70
1
43
0.0
10
111.62500000000001
20
57.474999999999994
10
124.62500000000003
20
57.475000000000009
42
-0.41421356237309503
10
125.12500000000003
20
56.974999999999994
10
125.12500000000003
20
43.975000000000001
42
-0.41421356237309503
10
124.62500000000003
20
43.475000000000001
10
111.62500000000001
20
43.474999999999994
42
-0.41421356237309503
10
111.125
20
43.975000000000001
10
111.125
20
56.974999999999994
42
-0.41421356237309503
0
LWPOLYLINE
5
113
100
AcDbEntity
8
0
100
AcDbPolyline
90
8
70
1
43
0.0
10
-116.97499999999999
20
38.424999999999997
10
-103.97499999999999
20
38.425000000000004
42
-0.4142135623730846
10
-103.47499999999999
20
37.924999999999997
10
-103.47499999999999
20
24.924999999999997
42
-0.4142135623730846
10
-103.97499999999999
20
24.424999999999994
10
-116.97499999999999
20
24.42499999999999
42
-0.41421356237309503
10
-117.47500000000001
20
24.924999999999997
10
-117.47499999999999
20
37.924999999999997
42
-0.41421356237309503
0
LWPOLYLINE
5
114
100
AcDbEntity
8
0
100
AcDbPolyline
90
8
70
1
43
0.0
10
-97.925000000000011
20
38.424999999999997
10
-84.924999999999997
20
38.425000000000004
42
-0.41421356237309503
10
-84.424999999999983
20
37.924999999999997
10
-84.424999999999983
20
24.924999999999997
42
-0.41421356237309503
10
-84.924999999999997
20
24.424999999999994
10
-97.925000000000011
20
24.425000000000008
42
-0.41421356237309503
10
-98.424999999999997
20
24.924999999999997
10
-98.425000000000011
20
37.924999999999997
42
-0.41421356237309503
0
LWPOLYLINE
5
115
100
AcDbEntity
8
0
100
AcDbPolyline
90
8
70
1
43
0.0
10
-78.875
20
38.424999999999997
10
-65.875
20
38.424999999999997
42
-0.41421356237309503
10
-65.375
20
37.924999999999997
10
-65.375
20
24.924999999999997
42
-0.41421356237309503
10
-65.875
20
24.424999999999994
10
-78.875
20
24.424999999999997
42
-0.41421356237309503
10
-79.375
20
24.924999999999997
10
-79.375
20
37.924999999999997
42
-0.41421356237309503
0
LWPOLYLINE
5
116
100
AcDbEntity
8
0
100
AcDbPolyline
90
8
70
1
43
0.0
10
-59.825000000000003
20
38.424999999999997
10
-46.825000000000003
20
38.424999999999997
42
-0.41421356237309503
10
-46.325000000000003
20
37.924999999999997
10
-46.325000000000003
20
24.924999999999997
42
-0.41421356237309503
10
-46.825000000000003
20
24.424999999999994
10
-59.825000000000003
20
24.424999999999997
42
-0.41421356237309503
10
-60.324999999999996
20
24.924999999999997
10
-60.324999999999996
20
37.924999999999997
42
-0.41421356237309503
0
LWPOLYLINE
5
117
100
AcDbEntity
8
0
100
AcDbPolyline
90
8
70
1
43
0.0
10
-40.775000000000006
20
38.424999999999997
10
-27.774999999999999
20
38.42499999999999
42
-0.41421356237309503
10
-27.275000000000009
20
37.924999999999997
10
-27.274999999999995
20
24.924999999999997
42
-0.41421356237309503
10
-27.774999999999999
20
24.424999999999994
10
-40.775000000000006
20
24.424999999999997
42
-0.41421356237309503
10
-41.275000000000006
20
24.924999999999997
10
-41.275000000000006
20
37.924999999999997
42
-0.41421356237309503
0
LWPOLYLINE
5
118
100
AcDbEntity
8
0
100
AcDbPolyline
90
8
70
1
43
0.0
10
-21.724999999999994
20
38.424999999999997
10
-8.7249999999999872
20
38.425000000000004
42
-0.41421356237309503
10
-8.2249999999999801
20
37.924999999999997
10
-8.2249999999999837
20
24.924999999999997
42
-0.41421356237309503
10
-8.7249999999999872
20
24.424999999999994
10
-21.724999999999994
20
24.425000000000008
42
-0.41421356237309503
10
-22.224999999999984
20
24.924999999999997
10
-22.224999999999994
20
37.924999999999997
42
-0.41421356237309503
0
LWPOLYLINE
5
119
100
AcDbEntity
8
0
100
AcDbPolyline
90
8
70
1
43
0.0
10
-2.6749999999999829
20
38.424999999999997
10
10.324999999999989
20
38.425000000000004
42
-0.41421356237309503
10
10.824999999999996
20
37.924999999999997
10
10.824999999999992
20
24.924999999999997
42
-0.41421356237309503
10
10.324999999999989
20
24.424999999999994
10
-2.6749999999999829
20
24.42499999999999
42
-0.41421356237309503
10
-3.1749999999999901
20
24.924999999999997
10
-3.1749999999999812
20
37.924999999999997
42
-0.41421356237309503
0
LWPOLYLINE
5
120
100
AcDbEntity
8
0
100
AcDbPolyline
90
8
70
1
43
0.0
10
16.375000000000011
20
38.424999999999997
10
29.375
20
38.425000000000004
42
-0.41421356237309503
10
29.875000000000007
20
37.924999999999997
10
29.875000000000004
20
24.924999999999997
42
-0.41421356237309503
10
29.375
20
24.424999999999994
10
16.375000000000011
20
24.42499999999999
42
-0.41421356237309503
10
15.875000000000004
20
24.924999999999997
10
15.875000000000012
20
37.924999999999997
42
-0.41421356237309503
0
LWPOLYLINE
5
121
100
AcDbEntity
8
0
100
AcDbPolyline
90
8
70
1
43
0.0
10
35.425000000000026
20
38.424999999999997
10
48.425000000000011
20
38.425000000000004
42
-0.41421356237309503
10
48.925000000000018
20
37.924999999999997
10
48.925000000000018
20
24.924999999999997
42
-0.41421356237309503
10
48.425000000000011
20
24.424999999999994
10
35.425000000000026
20
24.42499999999999
42
-0.41421356237309503
10
34.925000000000011
20
24.924999999999997
10
34.925000000000026
20
37.924999999999997
42
-0.41421356237309503
0
LWPOLYLINE
5
122
100
AcDbEntity
8
0
100
AcDbPolyline
90
8
70
1
43
0.0
10
54.475000000000016
20
38.424999999999997
10
67.474999999999994
20
38.425000000000004
42
-0.41421356237309503
10
67.974999999999994
20
37.924999999999997
10
67.974999999999994
20
24.924999999999997
42
-0.41421356237309503
10
67.474999999999994
20
24.424999999999994
10
54.475000000000016
20
24.42499999999999
42
-0.41421356237309503
10
53.975000000000009
20
24.924999999999997
10
53.975000000000016
20
37.924999999999997
42
-0.41421356237309503
0
LWPOLYLINE
5
123
100
AcDbEntity
8
0
100
AcDbPolyline
90
8
70
1
43
0.0
10
73.525000000000034
20
38.424999999999997
10
86.525000000000034
20
38.424999999999969
42
-0.41421356237309503
10
87.025000000000006
20
37.924999999999997
10
87.025000000000034
20
24.924999999999997
42
-0.41421356237309503
10
86.525000000000034
20
24.424999999999994
10
73.525000000000034
20
24.42499999999999
42
-0.41421356237309503
10
73.02500000000002
20
24.924999999999997
10
73.025000000000034
20
37.924999999999997
42
-0.41421356237309503
0
LWPOLYLINE
5
124
100
AcDbEntity
8
0
100
AcDbPolyline
90
8
70
1
43
0.0
10
92.575000000000003
20
38.424999999999997
10
105.57500000000002
20
38.425000000000004
42
-0.41421356237309503
10
106.07500000000002
20
37.924999999999997
10
106.07500000000002
20
24.924999999999997
42
-0.41421356237309503
10
105.57500000000002
20
24.424999999999994
10
92.575000000000003
20
24.42499999999999
42
-0.41421356237309503
10
92.074999999999989
20
24.924999999999997
10
92.074999999999989
20
37.924999999999997
42
-0.41421356237309503
0
LWPOLYLINE
5
125
100
AcDbEntity
8
0
100
AcDbPolyline
90
8
70
1
43
0.0
10
111.62500000000001
20
38.424999999999997
10
124.62500000000003
20
38.425000000000004
42
-0.41421356237309503
10
125.12500000000003
20
37.924999999999997
10
125.12500000000003
20
24.924999999999997
42
-0.41421356237309503
10
124.62500000000003
20
24.424999999999994
10
111.62500000000001
20
24.42499999999999
42
-0.41421356237309503
10
111.125
20
24.924999999999997
10
111.125
20
37.924999999999997
42
-0.41421356237309503
0
LWPOLYLINE
5
126
100
AcDbEntity
8
0
100
AcDbPolyline
90
8
70
1
43
0.0
10
140.19999999999999
20
38.424999999999997
10
153.19999999999999
20
38.425000000000004
42
-0.41421356237309503
10
153.70000000000002
20
37.924999999999997
10
153.70000000000002
20
24.924999999999997
42
-0.41421356237309503
10
153.19999999999999
20
24.424999999999994
10
140.19999999999999
20
24.42499999999999
42
-0.41421356237309503
10
139.69999999999999
20
24.924999999999997
10
139.69999999999999
20
37.924999999999997
42
-0.41421356237309503
0
LWPOLYLINE
5
127
100
AcDbEntity
8
0
100
AcDbPolyline
90
8
70
1
43
0.0
10
131.762
20
37.425000000000004
10
137.76200000000003
20
37.424999999999969
42
-0.41421356237309503
10
138.262
20
36.924999999999997
10
138.26200000000003
20
22.924999999999997
42
-0.41421356237309503
10
137.76200000000003
20
22.424999999999997
10
131.762
20
22.42499999999999
42
-0.41421356237309503
10
131.262
20
22.924999999999997
10
131.262
20
36.924999999999997
42
-0.41421356237309503
0
LWPOLYLINE
5
128
100
AcDbEntity
8
0
100
AcDbPolyline
90
8
70
1
43
0.0
10
155.63800000000001
20
37.425000000000004
10
161.63799999999998
20
37.425000000000004
42
-0.41421356237309503
10
162.13799999999998
20
36.924999999999997
10
162.13799999999998
20
22.924999999999997
42
-0.41421356237309503
10
161.63799999999998
20
22.424999999999997
10
155.63800000000001
20
22.42499999999999
42
-0.41421356237309503
10
155.13800000000001
20
22.924999999999997
10
155.13800000000001
20
36.924999999999997
42
-0.41421356237309503
0
LWPOLYLINE
5
129
100
AcDbEntity
8
0
100
AcDbPolyline
90
8
70
1
43
0.0
10
168.77499999999998
20
38.424999999999997
10
181.77499999999998
20
38.425000000000004
42
-0.41421356237309503
10
182.27499999999998
20
37.924999999999997
10
182.27499999999998
20
24.924999999999997
42
-0.41421356237309503
10
181.77499999999998
20
24.424999999999994
10
168.77499999999998
20
24.425000000000026
42
-0.41421356237309503
10
168.27500000000001
20
24.924999999999997
10
168.27499999999998
20
37.924999999999997
42
-0.41421356237309503
0
LWPOLYLINE
5
130
100
AcDbEntity
8
0
100
AcDbPolyline
90
8
70
1
43
0.0
10
-112.21249999999999
20
19.375
10
-99.212499999999991
20
19.375000000000007
42
-0.4142135623730846
10
-98.712500000000006
20
18.875
10
-98.712500000000006
20
5.8749999999999947
42
-0.4142135623730846
10
-99.212499999999991
20
5.3749999999999964
10
-112.21249999999999
20
5.3749999999999876
42
-0.41421356237309503
10
-112.71250000000001
20
5.8749999999999947
10
-112.71249999999998
20
18.875
42
-0.41421356237309503
0
LWPOLYLINE
5
131
100
AcDbEntity
8
0
100
AcDbPolyline
90
8
70
1
43
0.0
10
-88.400000000000006
20
19.375
10
-75.400000000000006
20
19.375000000000007
42
-0.41421356237309503
10
-74.899999999999991
20
18.875
10
-74.900000000000006
20
5.8749999999999947
42
-0.41421356237309503
10
-75.400000000000006
20
5.3749999999999964
10
-88.400000000000006
20
5.3749999999999876
42
-0.41421356237309503
10
-88.900000000000006
20
5.8749999999999947
10
-88.900000000000006
20
18.875
42
-0.41421356237309503
0
LWPOLYLINE
5
132
100
AcDbEntity
8
0
100
AcDbPolyline
90
8
70
1
43
0.0
10
-69.349999999999994
20
19.375
10
-56.349999999999994
20
19.375000000000007
42
-0.41421356237309503
10
-55.849999999999994
20
18.875
10
-55.850000000000001
20
5.8749999999999947
42
-0.41421356237309503
10
-56.349999999999994
20
5.3749999999999964
10
-69.349999999999994
20
5.3749999999999964
42
-0.41421356237309503
10
-69.849999999999994
20
5.8749999999999947
10
-69.849999999999994
20
18.875
42
-0.41421356237309503
0
LWPOLYLINE
5
133
100
AcDbEntity
8
0
100
AcDbPolyline
90
8
70
1
43
0.0
10
-50.299999999999997
20
19.375
10
-37.299999999999983
20
19.374999999999993
42
-0.41421356237309503
10
-36.799999999999997
20
18.875
10
-36.79999999999999
20
5.8749999999999947
42
-0.41421356237309503
10
-37.299999999999983
20
5.3749999999999964
10
-50.299999999999997
20
5.3749999999999964
42
-0.41421356237309503
10
-50.79999999999999
20
5.8749999999999947
10
-50.79999999999999
20
18.875
42
-0.41421356237309503
0
LWPOLYLINE
5
134
100
AcDbEntity
8
0
100
AcDbPolyline
90
8
70
1
43
0.0
10
-31.25
20
19.375
10
-18.249999999999993
20
19.375000000000007
42
-0.41421356237309503
10
-17.749999999999986
20
18.875
10
-17.749999999999993
20
5.8749999999999947
42
-0.41421356237309503
10
-18.249999999999993
20
5.3749999999999964
10
-31.25
20
5.3750000000000053
42
-0.41421356237309503
10
-31.749999999999989
20
5.8749999999999947
10
-31.75
20
18.875
42
-0.41421356237309503
0
LWPOLYLINE
5
135
100
AcDbEntity
8
0
100
AcDbPolyline
90
8
70
1
43
0.0
10
-12.199999999999989
20
19.375
10
0.80000000000000071
20
19.375000000000007
42
-0.41421356237309503
10
1.3000000000000078
20
18.875
10
1.2999999999999989
20
5.8749999999999947
42
-0.41421356237309503
10
0.80000000000000071
20
5.3749999999999964
10
-12.199999999999989
20
5.3749999999999876
42
-0.41421356237309503
10
-12.699999999999996
20
5.8749999999999947
10
-12.699999999999987
20
18.875
42
-0.41421356237309503
0
LWPOLYLINE
5
136
100
AcDbEntity
8
0
100
AcDbPolyline
90
8
70
1
43
0.0
10
6.850000000000005
20
19.375
10
19.849999999999994
20
19.375000000000007
42
-0.41421356237309503
10
20.350000000000001
20
18.875
10
20.349999999999994
20
5.8749999999999947
42
-0.41421356237309503
10
19.849999999999994
20
5.3749999999999964
10
6.850000000000005
20
5.3749999999999876
42
-0.41421356237309503
10
6.3499999999999979
20
5.8749999999999947
10
6.3500000000000068
20
18.875
42
-0.41421356237309503
0
LWPOLYLINE
5
137
100
AcDbEntity
8
0
100
AcDbPolyline
90
8
70
1
43
0.0
10
25.900000000000016
20
19.375
10
38.900000000000006
20
19.375000000000007
42
-0.41421356237309503
10
39.400000000000013
20
18.875
10
39.400000000000006
20
5.8749999999999947
42
-0.41421356237309503
10
38.900000000000006
20
5.3749999999999964
10
25.900000000000016
20
5.3749999999999876
42
-0.41421356237309503
10
25.400000000000009
20
5.8749999999999947
10
25.40000000000002
20
18.875
42
-0.41421356237309503
0
LWPOLYLINE
5
138
100
AcDbEntity
8
0
100
AcDbPolyline
90
8
70
1
43
0.0
10
44.95000000000001
20
19.375
10
57.949999999999982
20
19.375000000000007
42
-0.41421356237309503
10
58.449999999999989
20
18.875
10
58.449999999999982
20
5.8749999999999947
42
-0.41421356237309503
10
57.949999999999982
20
5.3749999999999964
10
44.95000000000001
20
5.3749999999999876
42
-0.41421356237309503
10
44.450000000000003
20
5.8749999999999947
10
44.45000000000001
20
18.875
42
-0.41421356237309503
0
LWPOLYLINE
5
139
100
AcDbEntity
8
0
100
AcDbPolyline
90
8
70
1
43
0.0
10
64.000000000000028
20
19.375
10
77.000000000000028
20
19.374999999999972
42
-0.41421356237309503
10
77.5
20
18.875
10
77.500000000000028
20
5.8749999999999947
42
-0.41421356237309503
10
77.000000000000028
20
5.3749999999999964
10
64.000000000000028
20
5.3749999999999876
42
-0.41421356237309503
10
63.500000000000014
20
5.8749999999999947
10
63.500000000000021
20
18.875
42
-0.41421356237309503
0
LWPOLYLINE
5
140
100
AcDbEntity
8
0
100
AcDbPolyline
90
8
70
1
43
0.0
10
83.05000000000004
20
19.375
10
96.05000000000004
20
19.374999999999972
42
-0.41421356237309503
10
96.550000000000011
20
18.875
10
96.55000000000004
20
5.8749999999999947
42
-0.41421356237309503
10
96.05000000000004
20
5.3749999999999964
10
83.05000000000004
20
5.3749999999999876
42
-0.41421356237309503
10
82.550000000000026
20
5.8749999999999947
10
82.550000000000026
20
18.875
42
-0.41421356237309503
0
LWPOLYLINE
5
141
100
AcDbEntity
8
0
100
AcDbPolyline
90
8
70
1
43
0.0
10
102.10000000000001
20
19.375
10
115.10000000000002
20
19.375000000000007
42
-0.41421356237309503
10
115.60000000000002
20
18.875
10
115.60000000000002
20
5.8749999999999947
42
-0.41421356237309503
10
115.10000000000002
20
5.3749999999999964
10
102.10000000000001
20
5.3749999999999876
42
-0.41421356237309503
10
101.59999999999999
20
5.8749999999999947
10
101.59999999999999
20
18.875
42
-0.41421356237309503
0
LWPOLYLINE
5
142
100
AcDbEntity
8
0
100
AcDbPolyline
90
8
70
1
43
0.0
10
121.15000000000002
20
19.375
10
134.15000000000003
20
19.375000000000007
42
-0.41421356237309503
10
134.65000000000003
20
18.875
10
134.65000000000003
20
5.8749999999999947
42
-0.41421356237309503
10
134.15000000000003
20
5.3749999999999964
10
121.15000000000002
20
5.3749999999999876
42
-0.41421356237309503
10
120.65000000000001
20
5.8749999999999947
10
120.65000000000001
20
18.875
42
-0.41421356237309503
0
LWPOLYLINE
5
143
100
AcDbEntity
8
0
100
AcDbPolyline
90
8
70
1
43
0.0
10
144.96250000000001
20
19.375
10
157.96250000000001
20
19.374999999999972
42
-0.41421356237309503
10
158.46249999999998
20
18.875
10
158.46250000000001
20
5.8749999999999947
42
-0.41421356237309503
10
157.96250000000001
20
5.3749999999999964
10
144.96250000000001
20
5.3749999999999876
42
-0.41421356237309503
10
144.46249999999998
20
5.8749999999999947
10
144.46249999999998
20
18.875
42
-0.41421356237309503
0
LWPOLYLINE
5
144
100
AcDbEntity
8
0
100
AcDbPolyline
90
8
70
1
43
0.0
10
168.77499999999998
20
19.375
10
181.77499999999998
20
19.375000000000007
42
-0.41421356237309503
10
182.27499999999998
20
18.875
10
182.27499999999998
20
5.8749999999999947
42
-0.41421356237309503
10
181.77499999999998
20
5.3749999999999964
10
168.77499999999998
20
5.3750000000000231
42
-0.41421356237309503
10
168.27500000000001
20
5.8749999999999947
10
168.27499999999998
20
18.875
42
-0.41421356237309503
0
LWPOLYLINE
5
145
100
AcDbEntity
8
0
100
AcDbPolyline
90
8
70
1
43
0.0
10
-109.83125
20
0.32499999999999751
10
-96.831249999999983
20
0.32500000000000639
42
-0.4142135623730846
10
-96.331249999999997
20
-0.17500000000000071
10
-96.331249999999997
20
-13.174999999999999
42
-0.4142135623730846
10
-96.831249999999983
20
-13.674999999999997
10
-109.83125
20
-13.675000000000006
42
-0.41421356237309503
10
-110.33125
20
-13.174999999999999
10
-110.33124999999998
20
-0.17500000000000074
42
-0.41421356237309503
0
LWPOLYLINE
5
146
100
AcDbEntity
8
0
100
AcDbPolyline
90
8
70
1
43
0.0
10
-83.637499999999989
20
0.32499999999999751
10
-70.637499999999989
20
0.32499999999999751
42
-0.41421356237308982
10
-70.137500000000003
20
-0.17500000000000071
10
-70.137500000000003
20
-13.174999999999999
42
-0.41421356237308982
10
-70.637499999999989
20
-13.674999999999997
10
-83.637499999999989
20
-13.675000000000006
42
-0.41421356237309503
10
-84.137500000000003
20
-13.174999999999999
10
-84.137500000000003
20
-0.17500000000000074
42
-0.41421356237309503
0
LWPOLYLINE
5
147
100
AcDbEntity
8
0
100
AcDbPolyline
90
8
70
1
43
0.0
10
-64.587499999999991
20
0.32499999999999751
10
-51.587500000000006
20
0.32499999999999751
42
-0.41421356237309503
10
-51.087500000000006
20
-0.17500000000000071
10
-51.087500000000006
20
-13.174999999999999
42
-0.41421356237309503
10
-51.587500000000006
20
-13.674999999999997
10
-64.587499999999991
20
-13.674999999999997
42
-0.41421356237309503
10
-65.087499999999991
20
-13.174999999999999
10
-65.087499999999991
20
-0.17500000000000074
42
-0.41421356237309503
0
LWPOLYLINE
5
148
100
AcDbEntity
8
0
100
AcDbPolyline
90
8
70
1
43
0.0
10
-45.537499999999994
20
0.32499999999999751
10
-32.53749999999998
20
0.32499999999998863
42
-0.41421356237309503
10
-32.037499999999994
20
-0.17500000000000071
10
-32.037499999999987
20
-13.174999999999999
42
-0.41421356237309503
10
-32.53749999999998
20
-13.674999999999997
10
-45.537499999999994
20
-13.674999999999997
42
-0.41421356237309503
10
-46.037499999999987
20
-13.174999999999999
10
-46.037499999999987
20
-0.17500000000000074
42
-0.41421356237309503
0
LWPOLYLINE
5
149
100
AcDbEntity
8
0
100
AcDbPolyline
90
8
70
1
43
0.0
10
-26.487499999999997
20
0.32499999999999751
10
-13.48749999999999
20
0.32500000000000639
42
-0.41421356237309503
10
-12.987499999999983
20
-0.17500000000000071
10
-12.987499999999992
20
-13.174999999999999
42
-0.41421356237309503
10
-13.48749999999999
20
-13.674999999999997
10
-26.487499999999997
20
-13.674999999999988
42
-0.41421356237309503
10
-26.987499999999986
20
-13.174999999999999
10
-26.987499999999997
20
-0.17500000000000074
42
-0.41421356237309503
0
LWPOLYLINE
5
150
100
AcDbEntity
8
0
100
AcDbPolyline
90
8
70
1
43
0.0
10
-7.4374999999999858
20
0.32499999999999751
10
5.5625000000000036
20
0.32500000000000639
42
-0.41421356237309503
10
6.0625000000000107
20
-0.17500000000000071
10
6.0625000000000018
20
-13.174999999999999
42
-0.41421356237309503
10
5.5625000000000036
20
-13.674999999999997
10
-7.4374999999999858
20
-13.675000000000006
42
-0.41421356237309503
10
-7.9374999999999929
20
-13.174999999999999
10
-7.937499999999984
20
-0.17500000000000074
42
-0.41421356237309503
0
LWPOLYLINE
5
151
100
AcDbEntity
8
0
100
AcDbPolyline
90
8
70
1
43
0.0
10
11.612500000000026
20
0.32499999999999751
10
24.612500000000015
20
0.32500000000000639
42
-0.41421356237309503
10
25.112500000000022
20
-0.17500000000000071
10
25.112500000000011
20
-13.174999999999999
42
-0.41421356237309503
10
24.612500000000015
20
-13.674999999999997
10
11.612500000000026
20
-13.675000000000006
42
-0.41421356237309503
10
11.112500000000018
20
-13.174999999999999
10
11.112500000000027
20
-0.17500000000000074
42
-0.41421356237309503
0
LWPOLYLINE
5
152
100
AcDbEntity
8
0
100
AcDbPolyline
90
8
70
1
43
0.0
10
30.662500000000001
20
0.32499999999999751
10
43.662500000000009
20
0.32500000000000639
42
-0.41421356237309503
10
44.162500000000016
20
-0.17500000000000071
10
44.162500000000009
20
-13.174999999999999
42
-0.41421356237309503
10
43.662500000000009
20
-13.674999999999997
10
30.662500000000001
20
-13.675000000000006
42
-0.41421356237309503
10
30.162499999999994
20
-13.174999999999999
10
30.162500000000001
20
-0.17500000000000074
42
-0.41421356237309503
0
LWPOLYLINE
5
153
100
AcDbEntity
8
0
100
AcDbPolyline
90
8
70
1
43
0.0
10
49.712500000000013
20
0.32499999999999751
10
62.71250000000002
20
0.32500000000000639
42
-0.41421356237309503
10
63.212500000000027
20
-0.17500000000000071
10
63.21250000000002
20
-13.174999999999999
42
-0.41421356237309503
10
62.71250000000002
20
-13.674999999999997
10
49.712500000000013
20
-13.675000000000006
42
-0.41421356237309503
10
49.212500000000006
20
-13.174999999999999
10
49.212500000000013
20
-0.17500000000000074
42
-0.41421356237309503
0
LWPOLYLINE
5
154
100
AcDbEntity
8
0
100
AcDbPolyline
90
8
70
1
43
0.0
10
68.762499999999989
20
0.32499999999999751
10
81.762499999999989
20
0.32500000000000639
42
-0.41421356237309503
10
82.262500000000003
20
-0.17500000000000071
10
82.262500000000003
20
-13.174999999999999
42
-0.41421356237309503
10
81.762499999999989
20
-13.674999999999997
10
68.762499999999989
20
-13.675000000000006
42
-0.41421356237309503
10
68.262499999999989
20
-13.174999999999999
10
68.262499999999989
20
-0.17500000000000074
42
-0.41421356237309503
0
LWPOLYLINE
5
155
100
AcDbEntity
8
0
100
AcDbPolyline
90
8
70
1
43
0.0
10
87.8125
20
0.32499999999999751
10
100.8125
20
0.32500000000000639
42
-0.41421356237309503
10
101.31250000000001
20
-0.17500000000000071
10
101.31250000000001
20
-13.174999999999999
42
-0.41421356237309503
10
100.8125
20
-13.674999999999997
10
87.8125
20
-13.674999999999971
42
-0.41421356237309503
10
87.312500000000028
20
-13.174999999999999
10
87.3125
20
-0.17500000000000074
42
-0.41421356237309503
0
LWPOLYLINE
5
156
100
AcDbEntity
8
0
100
AcDbPolyline
90
8
70
1
43
0.0
10
106.86250000000001
20
0.32499999999999751
10
119.86250000000001
20
0.32500000000000639
42
-0.41421356237309503
10
120.36250000000003
20
-0.17500000000000071
10
120.36250000000003
20
-13.174999999999999
42
-0.41421356237309503
10
119.86250000000001
20
-13.674999999999997
10
106.86250000000001
20
-13.674999999999971
42
-0.41421356237309503
10
106.36250000000004
20
-13.174999999999999
10
106.36250000000001
20
-0.17500000000000074
42
-0.41421356237309503
0
LWPOLYLINE
5
157
100
AcDbEntity
8
0
100
AcDbPolyline
90
8
70
1
43
0.0
10
137.81875000000002
20
0.32499999999999751
10
150.81875000000002
20
0.32500000000000639
42
-0.41421356237309503
10
151.31875000000005
20
-0.17500000000000071
10
151.31875000000005
20
-13.174999999999999
42
-0.41421356237309503
10
150.81875000000002
20
-13.674999999999997
10
137.81875000000002
20
-13.675000000000006
42
-0.41421356237309503
10
137.31875000000002
20
-13.174999999999999
10
137.31875000000002
20
-0.17500000000000074
42
-0.41421356237309503
0
LWPOLYLINE
5
158
100
AcDbEntity
8
0
100
AcDbPolyline
90
8
70
1
43
0.0
10
129.38075000000001
20
-0.67499999999999893
10
135.38075000000003
20
-0.67499999999999005
42
-0.41421356237309503
10
135.88075000000003
20
-1.1749999999999972
10
135.88075000000003
20
-15.175000000000001
42
-0.41421356237309503
10
135.38075000000003
20
-15.674999999999999
10
129.38075000000001
20
-15.675000000000008
42
-0.41421356237309503
10
128.88075000000001
20
-15.175000000000001
10
128.88075000000001
20
-1.1749999999999972
42
-0.41421356237309503
0
LWPOLYLINE
5
159
100
AcDbEntity
8
0
100
AcDbPolyline
90
8
70
1
43
0.0
10
153.25675000000004
20
-0.67499999999999893
10
159.25675000000001
20
-0.67499999999999005
42
-0.41421356237309503
10
159.75675000000001
20
-1.1749999999999972
10
159.75675000000001
20
-15.175000000000001
42
-0.41421356237309503
10
159.25675000000001
20
-15.674999999999999
10
153.25675000000004
20
-15.675000000000008
42
-0.41421356237309503
10
152.75675000000004
20
-15.175000000000001
10
152.75675000000004
20
-1.1749999999999972
42
-0.41421356237309503
0
LWPOLYLINE
5
160
100
AcDbEntity
8
0
100
AcDbPolyline
90
8
70
1
43
0.0
10
168.77499999999998
20
0.32499999999999751
10
181.77499999999998
20
0.32500000000000639
42
-0.41421356237309503
10
182.27499999999998
20
-0.17500000000000071
10
182.27499999999998
20
-13.174999999999999
42
-0.41421356237309503
10
181.77499999999998
20
-13.674999999999997
10
168.77499999999998
20
-13.674999999999971
42
-0.41421356237309503
10
168.27500000000001
20
-13.174999999999999
10
168.27499999999998
20
-0.17500000000000074
42
-0.41421356237309503
0
LWPOLYLINE
5
161
100
AcDbEntity
8
0
100
AcDbPolyline
90
8
70
1
43
0.0
10
-105.06875000000001
20
-18.724999999999994
10
-92.068749999999994
20
-18.724999999999987
42
-0.41421356237309503
10
-91.568749999999994
20
-19.224999999999994
10
-91.568750000000009
20
-32.225000000000001
42
-0.41421356237309503
10
-92.068749999999994
20
-32.724999999999994
10
-105.06875000000001
20
-32.724999999999994
42
-0.41421356237309503
10
-105.56874999999999
20
-32.225000000000001
10
-105.56875000000002
20
-19.224999999999994
42
-0.41421356237309503
0
LWPOLYLINE
5
162
100
AcDbEntity
8
0
100
AcDbPolyline
90
8
70
1
43
0.0
10
-113.50675000000001
20
-19.725000000000001
10
-107.50675000000001
20
-19.725000000000001
42
-0.41421356237310542
10
-107.00675000000001
20
-20.224999999999991
10
-107.00674999999998
20
-34.224999999999994
42
-0.41421356237310542
10
-107.50675000000001
20
-34.725000000000001
10
-113.50675000000001
20
-34.72499999999998
42
-0.41421356237309503
10
-114.00675
20
-34.224999999999994
10
-114.00675
20
-20.224999999999991
42
-0.41421356237309503
0
LWPOLYLINE
5
163
100
AcDbEntity
8
0
100
AcDbPolyline
90
8
70
1
43
0.0
10
-89.630750000000006
20
-19.725000000000001
10
-83.630750000000006
20
-19.724999999999984
42
-0.41421356237309503
10
-83.130749999999992
20
-20.224999999999991
10
-83.130749999999992
20
-34.224999999999994
42
-0.41421356237309503
10
-83.630750000000006
20
-34.725000000000001
10
-89.630750000000006
20
-34.725000000000001
42
-0.41421356237309503
10
-90.130750000000006
20
-34.224999999999994
10
-90.130749999999992
20
-20.224999999999991
42
-0.41421356237309503
0
LWPOLYLINE
5
164
100
AcDbEntity
8
0
100
AcDbPolyline
90
8
70
1
43
0.0
10
-74.112499999999997
20
-18.724999999999994
10
-61.11249999999999
20
-18.724999999999994
42
-0.41421356237309503
10
-60.612499999999997
20
-19.224999999999994
10
-60.612500000000004
20
-32.225000000000001
42
-0.41421356237309503
10
-61.11249999999999
20
-32.724999999999994
10
-74.112499999999997
20
-32.725000000000001
42
-0.41421356237309503
10
-74.612499999999997
20
-32.225000000000001
10
-74.612499999999997
20
-19.224999999999994
42
-0.41421356237309503
0
LWPOLYLINE
5
165
100
AcDbEntity
8
0
100
AcDbPolyline
90
8
70
1
43
0.0
10
-55.0625
20
-18.724999999999994
10
-42.0625
20
-18.724999999999994
42
-0.41421356237309503
10
-41.5625
20
-19.224999999999994
10
-41.562500000000007
20
-32.225000000000001
42
-0.41421356237309503
10
-42.0625
20
-32.724999999999994
10
-55.0625
20
-32.725000000000001
42
-0.41421356237309503
10
-55.562499999999993
20
-32.225000000000001
10
-55.562499999999993
20
-19.224999999999994
42
-0.41421356237309503
0
LWPOLYLINE
5
166
100
AcDbEntity
8
0
100
AcDbPolyline
90
8
70
1
43
0.0
10
-36.012500000000003
20
-18.724999999999994
10
-23.012499999999996
20
-18.724999999999987
42
-0.41421356237309503
10
-22.512499999999989
20
-19.224999999999994
10
-22.512500000000006
20
-32.225000000000001
42
-0.41421356237309503
10
-23.012499999999996
20
-32.724999999999994
10
-36.012500000000003
20
-32.724999999999994
42
-0.41421356237309503
10
-36.512499999999989
20
-32.225000000000001
10
-36.512500000000003
20
-19.224999999999994
42
-0.41421356237309503
0
LWPOLYLINE
5
167
100
AcDbEntity
8
0
100
AcDbPolyline
90
8
70
1
43
0.0
10
-16.962499999999991
20
-18.724999999999994
10
-3.9625000000000021
20
-18.724999999999987
42
-0.41421356237309503
10
-3.462499999999995
20
-19.224999999999994
10
-3.4625000000000128
20
-32.225000000000001
42
-0.41421356237309503
10
-3.9625000000000021
20
-32.724999999999994
10
-16.962499999999991
20
-32.725000000000009
42
-0.41421356237309503
10
-17.462499999999999
20
-32.225000000000001
10
-17.462499999999991
20
-19.224999999999994
42
-0.41421356237309503
0
LWPOLYLINE
5
168
100
AcDbEntity
8
0
100
AcDbPolyline
90
8
70
1
43
0.0
10
2.0875000000000199
20
-18.724999999999994
10
15.087500000000009
20
-18.724999999999987
42
-0.41421356237309503
10
15.587500000000016
20
-19.224999999999994
10
15.587499999999999
20
-32.225000000000001
42
-0.41421356237309503
10
15.087500000000009
20
-32.724999999999994
10
2.0875000000000199
20
-32.725000000000009
42
-0.41421356237309503
10
1.5875000000000128
20
-32.225000000000001
10
1.5875000000000217
20
-19.224999999999994
42
-0.41421356237309503
0
LWPOLYLINE
5
169
100
AcDbEntity
8
0
100
AcDbPolyline
90
8
70
1
43
0.0
10
21.137499999999996
20
-18.724999999999994
10
34.137500000000003
20
-18.725000000000005
42
-0.41421356237309503
10
34.637499999999989
20
-19.224999999999994
10
34.637499999999989
20
-32.225000000000001
42
-0.41421356237309503
10
34.137500000000003
20
-32.724999999999994
10
21.137499999999996
20
-32.725000000000009
42
-0.41421356237309503
10
20.637499999999989
20
-32.225000000000001
10
20.637499999999996
20
-19.224999999999994
42
-0.41421356237309503
0
LWPOLYLINE
5
170
100
AcDbEntity
8
0
100
AcDbPolyline
90
8
70
1
43
0.0
10
40.187500000000007
20
-18.724999999999994
10
53.187500000000014
20
-18.724999999999987
42
-0.41421356237309503
10
53.687500000000021
20
-19.224999999999994
10
53.6875
20
-32.225000000000001
42
-0.41421356237309503
10
53.187500000000014
20
-32.724999999999994
10
40.187500000000007
20
-32.725000000000009
42
-0.41421356237309503
10
39.6875
20
-32.225000000000001
10
39.687500000000007
20
-19.224999999999994
42
-0.41421356237309503
0
LWPOLYLINE
5
171
100
AcDbEntity
8
0
100
AcDbPolyline
90
8
70
1
43
0.0
10
59.237500000000018
20
-18.724999999999994
10
72.237500000000026
20
-18.724999999999987
42
-0.41421356237309503
10
72.73750000000004
20
-19.224999999999994
10
72.737500000000011
20
-32.225000000000001
42
-0.41421356237309503
10
72.237500000000026
20
-32.724999999999994
10
59.237500000000018
20
-32.725000000000009
42
-0.41421356237309503
10
58.737500000000011
20
-32.225000000000001
10
58.737500000000018
20
-19.224999999999994
42
-0.41421356237309503
0
LWPOLYLINE
5
172
100
AcDbEntity
8
0
100
AcDbPolyline
90
8
70
1
43
0.0
10
78.287499999999994
20
-18.724999999999994
10
91.287499999999994
20
-18.724999999999987
42
-0.41421356237309503
10
91.787500000000009
20
-19.224999999999994
10
91.787499999999994
20
-32.225000000000001
42
-0.41421356237309503
10
91.287499999999994
20
-32.724999999999994
10
78.287499999999994
20
-32.724999999999973
42
-0.41421356237309503
10
77.787500000000023
20
-32.225000000000001
10
77.787499999999994
20
-19.224999999999994
42
-0.41421356237309503
0
LWPOLYLINE
5
173
100
AcDbEntity
8
0
100
AcDbPolyline
90
8
70
1
43
0.0
10
97.337500000000006
20
-18.724999999999994
10
110.33750000000001
20
-18.724999999999987
42
-0.41421356237309503
10
110.83750000000002
20
-19.224999999999994
10
110.83750000000001
20
-32.225000000000001
42
-0.41421356237309503
10
110.33750000000001
20
-32.724999999999994
10
97.337500000000006
20
-32.724999999999973
42
-0.41421356237309503
10
96.837500000000034
20
-32.225000000000001
10
96.837500000000006
20
-19.224999999999994
42
-0.41421356237309503
0
LWPOLYLINE
5
174
100
AcDbEntity
8
0
100
AcDbPolyline
90
8
70
1
43
0.0
10
123.53125000000003
20
-18.724999999999994
10
136.53125000000003
20
-18.725000000000023
42
-0.41421356237309503
10
137.03125
20
-19.224999999999994
10
137.03125000000003
20
-32.225000000000001
42
-0.41421356237309503
10
136.53125000000003
20
-32.724999999999994
10
123.53125000000003
20
-32.725000000000009
42
-0.41421356237309503
10
123.03125000000001
20
-32.225000000000001
10
123.03125000000001
20
-19.224999999999994
42
-0.41421356237309503
0
LWPOLYLINE
5
175
100
AcDbEntity
8
0
100
AcDbPolyline
90
8
70
1
43
0.0
10
149.72500000000002
20
-18.724999999999994
10
162.72500000000005
20
-18.724999999999987
42
-0.41421356237309503
10
163.22500000000005
20
-19.224999999999994
10
163.22500000000005
20
-32.225000000000001
42
-0.41421356237309503
10
162.72500000000005
20
-32.724999999999994
10
149.72500000000002
20
-32.725000000000009
42
-0.41421356237309503
10
149.22500000000002
20
-32.225000000000001
10
149.22500000000002
20
-19.224999999999994
42
-0.41421356237309503
0
LWPOLYLINE
5
176
100
AcDbEntity
8
0
100
AcDbPolyline
90
8
70
1
43
0.0
10
168.77499999999998
20
-18.724999999999994
10
181.77499999999998
20
-18.724999999999987
42
-0.41421356237309503
10
182.27499999999998
20
-19.224999999999994
10
182.27499999999998
20
-32.225000000000001
42
-0.41421356237309503
10
181.77499999999998
20
-32.724999999999994
10
168.77499999999998
20
-32.724999999999973
42
-0.41421356237309503
10
168.27500000000001
20
-32.225000000000001
10
168.27499999999998
20
-19.224999999999994
42
-0.41421356237309503
0
LWPOLYLINE
5
177
100
AcDbEntity
8
0
100
AcDbPolyline
90
8
70
1
43
0.0
10
-114.59375
20
-37.77500000000002
10
-101.59374999999999
20
-37.774999999999999
42
-0.4142135623730846
10
-101.09375
20
-38.275000000000006
10
-101.09375
20
-51.275000000000013
42
-0.4142135623730846
10
-101.59374999999999
20
-51.77500000000002
10
-114.59375
20
-51.77500000000002
42
-0.41421356237309503
10
-115.09375
20
-51.275000000000013
10
-115.09374999999999
20
-38.275000000000006
42
-0.41421356237309503
0
LWPOLYLINE
5
178
100
AcDbEntity
8
0
100
AcDbPolyline
90
8
70
1
43
0.0
10
-90.78125
20
-37.77500000000002
10
-77.78125
20
-37.774999999999999
42
-0.41421356237309503
10
-77.28125
20
-38.275000000000006
10
-77.28125
20
-51.275000000000013
42
-0.41421356237309503
10
-77.78125
20
-51.77500000000002
10
-90.78125
20
-51.77500000000002
42
-0.41421356237309503
10
-91.28125
20
-51.275000000000013
10
-91.281249999999986
20
-38.275000000000006
42
-0.41421356237309503
0
LWPOLYLINE
5
179
100
AcDbEntity
8
0
100
AcDbPolyline
90
8
70
1
43
0.0
10
-66.96875
20
-37.77500000000002
10
-53.96875
20
-37.775000000000006
42
-0.41421356237309503
10
-53.46875
20
-38.275000000000006
10
-53.468749999999986
20
-51.275000000000013
42
-0.41421356237309503
10
-53.96875
20
-51.77500000000002
10
-66.96875
20
-51.775000000000013
42
-0.41421356237309503
10
-67.46875
20
-51.275000000000013
10
-67.468749999999986
20
-38.275000000000006
42
-0.41421356237309503
0
LWPOLYLINE
5
180
100
AcDbEntity
8
0
100
AcDbPolyline
90
8
70
1
43
0.0
10
4.4687500000000036
20
-37.77500000000002
10
17.468750000000011
20
-37.77500000000002
42
-0.41421356237309503
10
17.96875
20
-38.275000000000006
10
17.968750000000018
20
-51.275000000000013
42
-0.41421356237309503
10
17.468750000000011
20
-51.77500000000002
10
4.4687500000000036
20
-51.775000000000006
42
-0.41421356237309503
10
3.9687500000000142
20
-51.275000000000013
10
3.9687500000000142
20
-38.275000000000006
42
-0.41421356237309503
0
LWPOLYLINE
5
181
100
AcDbEntity
8
0
100
AcDbPolyline
90
8
70
1
43
0.0
10
-42.03125
20
-38.775000000000013
10
-36.03125
20
-38.775000000000013
42
-0.41421356237309503
10
-35.53125
20
-39.27500000000002
10
-35.53125
20
-53.275000000000006
42
-0.41421356237309503
10
-36.03125
20
-53.775000000000013
10
-42.03125
20
-53.775000000000006
42
-0.41421356237309503
10
-42.53125
20
-53.275000000000006
10
-42.531250000000007
20
-39.27500000000002
42
-0.41421356237309503
0
LWPOLYLINE
5
182
100
AcDbEntity
8
0
100
AcDbPolyline
90
8
70
1
43
0.0
10
57.96875
20
-38.775000000000013
10
63.968750000000014
20
-38.775000000000013
42
-0.41421356237309503
10
64.468750000000028
20
-39.27500000000002
10
64.468750000000028
20
-53.275000000000006
42
-0.41421356237309503
10
63.968750000000014
20
-53.775000000000013
10
57.96875
20
-53.775000000000013
42
-0.41421356237309503
10
57.468749999999993
20
-53.275000000000006
10
57.468749999999993
20
-39.27500000000002
42
-0.41421356237309503
0
LWPOLYLINE
5
183
100
AcDbEntity
8
0
100
AcDbPolyline
90
8
70
1
43
0.0
10
73.525000000000034
20
-37.77500000000002
10
86.525000000000034
20
-37.775000000000034
42
-0.41421356237309503
10
87.025000000000006
20
-38.275000000000006
10
87.025000000000034
20
-51.275000000000013
42
-0.41421356237309503
10
86.525000000000034
20
-51.77500000000002
10
73.525000000000034
20
-51.77500000000002
42
-0.41421356237309503
10
73.02500000000002
20
-51.275000000000013
10
73.025000000000034
20
-38.275000000000006
42
-0.41421356237309503
0
LWPOLYLINE
5
184
100
AcDbEntity
8
0
100
AcDbPolyline
90
8
70
1
43
0.0
10
92.575000000000003
20
-37.77500000000002
10
105.57500000000002
20
-37.774999999999999
42
-0.41421356237309503
10
106.07500000000002
20
-38.275000000000006
10
106.07500000000002
20
-51.275000000000013
42
-0.41421356237309503
10
105.57500000000002
20
-51.77500000000002
10
92.575000000000003
20
-51.77500000000002
42
-0.41421356237309503
10
92.074999999999989
20
-51.275000000000013
10
92.075000000000017
20
-38.275000000000006
42
-0.41421356237309503
0
LWPOLYLINE
5
185
100
AcDbEntity
8
0
100
AcDbPolyline
90
8
70
1
43
0.0
10
111.62500000000001
20
-37.77500000000002
10
124.62500000000003
20
-37.774999999999999
42
-0.41421356237309503
10
125.12500000000003
20
-38.275000000000006
10
125.12500000000003
20
-51.275000000000013
42
-0.41421356237309503
10
124.62500000000003
20
-51.77500000000002
10
111.62500000000001
20
-51.77500000000002
42
-0.41421356237309503
10
111.125
20
-51.275000000000013
10
111.12500000000003
20
-38.275000000000006
42
-0.41421356237309503
0
LWPOLYLINE
5
186
100
AcDbEntity
8
0
100
AcDbPolyline
90
8
70
1
43
0.0
10
130.67500000000001
20
-37.77500000000002
10
143.67500000000004
20
-37.774999999999999
42
-0.41421356237309503
10
144.17500000000004
20
-38.275000000000006
10
144.17500000000004
20
-51.275000000000013
42
-0.41421356237309503
10
143.67500000000004
20
-51.77500000000002
10
130.67500000000001
20
-51.77500000000002
42
-0.41421356237309503
10
130.17500000000001
20
-51.275000000000013
10
130.17500000000004
20
-38.275000000000006
42
-0.41421356237309503
0
LWPOLYLINE
5
187
100
AcDbEntity
8
0
100
AcDbPolyline
90
8
70
1
43
0.0
10
149.72500000000002
20
-37.77500000000002
10
162.72500000000005
20
-37.774999999999999
42
-0.41421356237309503
10
163.22500000000005
20
-38.275000000000006
10
163.22500000000005
20
-51.275000000000013
42
-0.41421356237309503
10
162.72500000000005
20
-51.77500000000002
10
149.72500000000002
20
-51.77500000000002
42
-0.41421356237309503
10
149.22500000000002
20
-51.275000000000013
10
149.22500000000005
20
-38.275000000000006
42
-0.41421356237309503
0
LWPOLYLINE
5
188
100
AcDbEntity
8
0
100
AcDbPolyline
90
8
70
1
43
0.0
10
168.77499999999998
20
-37.77500000000002
10
181.77499999999998
20
-37.774999999999999
42
-0.41421356237309503
10
182.27499999999998
20
-38.275000000000006
10
182.27499999999998
20
-51.275000000000013
42
-0.41421356237309503
10
181.77499999999998
20
-51.77500000000002
10
168.77499999999998
20
-51.774999999999984
42
-0.41421356237309503
10
168.27500000000001
20
-51.275000000000013
10
168.27500000000001
20
-38.275000000000006
42
-0.41421356237309503
0
LWPOLYLINE
5
189
100
AcDbEntity
8
0
100
AcDbPolyline
90
16
70
1
43
0.0
10
-129.23775000000001
20
83.318999999999974
10
194.76225000000005
20
83.318999999999974
42
-0.4142135623730846
10
197.76225000000005
20
80.31899999999996
10
197.76225000000005
20
60.225000000000001
10
187.76225000000005
20
60.225000000000001
10
187.76225000000005
20
65.224999999999994
10
134.76225000000002
20
65.224999999999994
10
134.76225000000002
20
42.225000000000001
10
187.76225000000005
20
42.225000000000001
10
187.76225000000005
20
47.225000000000001
10
197.76225000000005
20
47.225000000000001
10
197.76225000000008
20
-63.681000000000019
42
-0.41421356237309764
10
194.76225000000002
20
-66.681000000000012
10
-129.23775000000003
20
-66.681000000000012
42
-0.41421356237308721
10
-132.23775000000001
20
-63.681000000000019
10
-132.23775000000001
20
80.31899999999996
42
-0.41421356237308815
0
CIRCLE
5
190
100
AcDbEntity
8
0
100
AcDbCircle
10
-127.23775000000001
20
78.318999999999988
30
0
40
1.4999999999999942
210
0
220
0
230
1
0
CIRCLE
5
191
100
AcDbEntity
8
0
100
AcDbCircle
10
-21.237749999999984
20
78.318999999999988
30
0
40
1.4999999999999942
210
0
220
0
230
1
0
CIRCLE
5
192
100
AcDbEntity
8
0
100
AcDbCircle
10
84.762250000000023
20
78.318999999999988
30
0
40
1.4999999999999942
210
0
220
0
230
1
0
CIRCLE
5
193
100
AcDbEntity
8
0
100
AcDbCircle
10
192.76225000000005
20
78.318999999999988
30
0
40
1.4999999999999942
210
0
220
0
230
1
0
CIRCLE
5
194
100
AcDbEntity
8
0
100
AcDbCircle
10
-127.23775000000001
20
-61.681000000000019
30
0
40
1.4999999999999942
210
0
220
0
230
1
0
CIRCLE
5
195
100
AcDbEntity
8
0
100
AcDbCircle
10
-21.237749999999984
20
-61.681000000000019
30
0
40
1.4999999999999942
210
0
220
0
230
1
0
CIRCLE
5
196
100
AcDbEntity
8
0
100
AcDbCircle
10
84.762250000000023
20
-61.681000000000019
30
0
40
1.4999999999999942
210
0
220
0
230
1
0
CIRCLE
5
197
100
AcDbEntity
8
0
100
AcDbCircle
10
192.76225000000005
20
-61.681000000000019
30
0
40
1.4999999999999942
210
0
220
0
230
1
0
ENDSEC
0
SECTION
2
OBJECTS
0
DICTIONARY
5
C
100
AcDbDictionary
3
ACAD_GROUP
350
D
3
ACAD_MLINESTYLE
350
17
0
DICTIONARY
5
D
100
AcDbDictionary
0
DICTIONARY
5
1A
330
C
100
AcDbDictionary
0
DICTIONARY
5
17
100
AcDbDictionary
0
ENDSEC
0
EOF
